<svg width="762" height="600" viewBox="0 0 762 600" fill="none" xmlns="http://www.w3.org/2000/svg">
<path d="M265.331 121.043C284.292 83.8724 337.299 83.8723 356.259 121.043L380.262 168.098C387.687 182.655 401.607 192.78 417.719 195.343L469.731 203.619C510.929 210.174 527.324 260.787 497.822 290.34L460.709 327.518C449.152 339.095 443.823 355.515 446.373 371.689L454.569 423.676C461.073 464.932 418.175 496.194 381.014 477.281L333.916 453.31C319.386 445.915 302.205 445.915 287.674 453.31L240.577 477.281C203.415 496.194 160.518 464.932 167.022 423.676L175.218 371.689C177.768 355.515 172.438 339.095 160.882 327.518L123.769 290.34C94.267 260.787 110.662 210.174 151.859 203.619L203.872 195.343C219.984 192.78 233.903 182.655 241.329 168.098L265.331 121.043Z" fill="#FFE550"/>
<path d="M20.943 381.694L20.5454 381.788C20.5944 383.178 20.5254 388.802 20.3383 398.66C20.2837 408.487 20.2706 414.939 20.2989 418.017C20.2958 420.961 20.2333 423.36 20.1115 425.211C20.1222 427.031 20.1294 429.132 20.1332 431.515C20.1056 433.764 19.9837 435.616 19.7677 437.069C19.6528 438.358 19.5379 439.647 19.423 440.935C19.1617 443.381 18.6335 444.697 17.8384 444.885C16.1157 445.293 13.4233 443.967 9.76123 440.908C6.06771 437.716 3.93833 434.925 3.37308 432.535C2.80782 430.146 2.65916 412.656 2.92707 380.068C3.3275 347.448 2.45122 325.995 0.298221 315.709C-0.172822 313.718 -0.0858523 312.015 0.559131 310.6C1.22483 307.499 4.66299 304.582 10.8736 301.851C17.2168 299.089 26.6829 296.219 39.2718 293.241C51.9934 290.231 62.089 288.544 69.5589 288.179C77.1613 287.782 81.2451 288.779 81.8104 291.168C82.1872 292.762 81.3278 294.157 79.232 295.353C77.1362 296.55 75.2741 297.551 73.6456 298.357C71.9857 299.03 69.8115 299.895 67.1229 300.952C64.4028 301.876 61.8816 302.753 59.5591 303.582C57.2052 304.279 54.1539 305.282 50.4052 306.589C46.7889 307.865 43.4377 309.079 40.3516 310.229C37.234 311.247 33.0372 312.731 27.761 314.68C22.4849 316.629 19.0674 317.858 17.5087 318.367C17.7354 318.734 17.943 319.316 18.1314 320.112C19.6073 326.352 20.4148 341.302 20.5538 364.962C28.8639 363.417 37.6291 361.133 46.8493 358.111C56.202 355.057 61.9385 353.279 64.0588 352.778C69.0944 351.587 71.8634 352.053 72.3658 354.177C73.3393 358.293 68.3914 363.109 57.522 368.624C46.7851 374.108 34.5921 378.465 20.943 381.694Z" fill="#2C2C2C"/>
<path d="M150.703 345.108C149.635 340.594 147.901 336.518 145.502 332.88C143.07 329.109 140.244 326.624 137.021 325.423C128.474 330.109 122.27 339.077 118.407 352.328C114.646 365.415 113.974 377.07 116.392 387.293C118.81 397.516 122.836 403.293 128.468 404.624C137.569 400.508 144.114 392.09 148.102 379.371C152.191 366.487 153.058 355.066 150.703 345.108ZM98.8492 359.268C101.038 347.815 105.058 337.892 110.908 329.498C116.86 320.94 123.745 315.736 131.564 313.886C139.515 312.005 146.941 313.823 153.843 319.341C160.714 324.725 165.296 332.263 167.588 341.955C169.849 351.514 169.854 361.888 167.602 373.075C165.32 384.13 160.855 393.948 154.21 402.53C147.665 410.948 139.821 416.238 130.677 418.401C123.919 420 117.549 418.213 111.567 413.038C105.586 407.864 101.465 400.498 99.2037 390.938C96.9113 381.246 96.7931 370.69 98.8492 359.268Z" fill="#2C2C2C"/>
<path d="M240.772 323.801C239.704 319.287 237.971 315.211 235.571 311.572C233.14 307.802 230.313 305.316 227.09 304.116C218.543 308.801 212.339 317.769 208.476 331.02C204.715 344.107 204.044 355.762 206.462 365.985C208.88 376.208 212.905 381.985 218.537 383.316C227.639 379.201 234.183 370.783 238.171 358.063C242.26 345.179 243.127 333.758 240.772 323.801ZM188.918 337.96C191.107 326.507 195.127 316.584 200.977 308.19C206.929 299.632 213.814 294.428 221.633 292.579C229.584 290.698 237.01 292.516 243.913 298.033C250.783 303.417 255.365 310.955 257.657 320.647C259.918 330.207 259.923 340.58 257.672 351.767C255.389 362.822 250.925 372.64 244.279 381.222C237.734 389.64 229.89 394.931 220.746 397.094C213.988 398.693 207.618 396.905 201.637 391.731C195.655 386.557 191.534 379.19 189.273 369.631C186.981 359.939 186.862 349.382 188.918 337.96Z" fill="#2C2C2C"/>
<path d="M334.69 206.951C336.81 206.449 339.865 207.829 343.855 211.091C347.946 214.189 350.4 217.464 351.216 220.916C352.033 224.368 352.7 234.585 353.218 251.566C353.705 268.414 353.803 285.986 353.513 304.28C353.141 345.305 351.432 366.178 348.384 366.899C346.528 367.337 344.208 366.695 341.421 364.971C338.735 363.083 337.189 361.275 336.78 359.549C336.372 357.824 336.019 354.262 335.722 348.865C325.876 365.213 316.116 374.532 306.443 376.821C300.612 378.2 294.683 376.799 288.656 372.617C282.762 368.403 279.14 363.442 277.79 357.733C275.843 349.501 275.721 339.226 277.425 326.906C279.23 314.422 283.207 302.546 289.358 291.278C295.508 280.009 303.287 273.262 312.696 271.036C322.105 268.81 329.999 272.901 336.378 283.308C336.479 253.563 334.93 230.447 331.73 213.96C330.788 209.977 331.774 207.641 334.69 206.951ZM335.953 309.906C334.257 302.737 331.569 296.993 327.89 292.677C324.342 288.329 320.846 286.562 317.401 287.377C311.703 288.725 306.704 293.623 302.405 302.07C298.106 310.518 295.251 319.745 293.84 329.752C292.53 339.595 292.66 347.836 294.23 354.474C294.796 356.864 296.112 358.586 298.181 359.638C300.249 360.691 302.475 360.936 304.861 360.371C310.029 359.149 316.107 353.785 323.094 344.281C330.214 334.746 334.568 324.463 336.157 313.432L336.188 310.902L335.953 309.906Z" fill="#2C2C2C"/>
<path d="M462.85 297.971C465.426 308.858 462.689 319.179 454.642 328.933C446.563 338.555 436.162 344.871 423.441 347.881C410.852 350.859 399.68 350.067 389.925 345.505C380.139 340.81 374.555 335.542 373.174 329.7C372.231 325.717 372.953 323.444 375.338 322.879C377.459 322.378 382.387 324.577 390.122 329.476C393.041 331.169 396.724 332.541 401.171 333.592C405.75 334.611 410.292 334.588 414.797 333.522C424.074 331.328 431.724 326.995 437.75 320.522C443.907 314.018 446.327 307.978 445.008 302.402C444.16 298.818 440.691 294.801 434.602 290.354C428.512 285.906 421.971 281.916 414.979 278.383C408.087 274.686 401.581 270.547 395.46 265.967C389.339 261.386 385.886 257.436 385.101 254.117C384.316 250.798 384.147 247.123 384.592 243.092C385.038 239.061 385.852 235.995 387.034 233.893C390.852 226.961 397.629 219.82 407.365 212.47C417.233 205.088 425.877 200.52 433.298 198.764C437.141 197.855 440.686 198.348 443.933 200.244C447.18 202.139 449.133 204.481 449.793 207.269C450.107 208.597 448.967 209.988 446.372 211.443C443.778 212.898 439.789 214.963 434.404 217.639C429.121 220.151 424.498 222.787 420.533 225.547C406.675 234.994 400.39 242.439 401.678 247.883C402.369 250.804 412.052 257.135 430.728 266.876C437.916 270.643 444.712 275.415 451.115 281.19C457.62 286.801 461.532 292.395 462.85 297.971Z" fill="#2C2C2C"/>
<path d="M508.511 307.988C509.108 310.511 510.864 311.427 513.779 310.737C518.814 309.546 524.58 306.71 531.077 302.229C537.674 297.584 541.371 295.167 542.166 294.979C544.551 294.415 546.042 295.394 546.639 297.917C547.549 301.767 544.626 307.155 537.868 314.081C531.243 320.976 524.684 325.191 518.191 326.727C511.83 328.232 506.121 327.76 501.064 325.311C495.976 322.73 492.992 319.58 492.113 315.863C491.233 312.146 490.914 307.244 491.153 301.159C491.362 294.941 491.809 286.774 492.495 276.658C493.282 266.378 493.798 257.914 494.045 251.266C488.162 254.2 484.161 255.918 482.041 256.42C479.92 256.921 477.549 256.361 474.926 254.738C472.405 252.951 470.908 251.062 470.437 249.071C469.683 245.884 477.575 240.793 494.111 233.797C493.89 222.213 492.774 212.172 490.764 203.675C489.822 199.692 490.677 197.387 493.327 196.76C495.58 196.227 498.708 197.029 502.712 199.166C506.684 201.171 509.094 203.965 509.942 207.55C510.79 211.135 511.155 217.708 511.038 227.269C518.434 224.818 524.385 223.06 528.891 221.994C536.842 220.113 541.225 220.898 542.042 224.35C542.513 226.342 540.719 228.519 536.66 230.881C532.733 233.212 524.209 237.401 511.087 243.45C510.785 254.596 510.115 267.443 509.078 281.988C508.009 296.4 507.82 305.067 508.511 307.988Z" fill="#2C2C2C"/>
<path d="M597.338 203.698C603.301 202.288 609.523 204.04 616.003 208.956C622.452 213.739 626.257 218.587 627.419 223.499C628.55 228.279 628.055 233.583 625.935 239.412C627.997 241.027 629.2 242.565 629.545 244.026C630.425 247.743 631.071 254.32 631.483 263.755C632.029 273.16 632.432 279.303 632.694 282.185C633.088 285.036 633.357 287.356 633.5 289.144C633.612 290.8 633.658 292.472 633.637 294.159C633.892 297.603 633.092 299.545 631.237 299.984C628.852 300.548 626.377 298.961 623.813 295.221C621.351 291.317 619.202 286.078 617.367 279.502C609.121 297.295 599.963 307.383 589.892 309.765C583.796 311.207 577.154 310.045 569.966 306.277C562.88 302.346 558.677 297.592 557.358 292.016C555.474 284.05 556.065 273.536 559.132 260.473C562.168 247.277 567.241 235.002 574.35 223.647C581.459 212.291 589.122 205.642 597.338 203.698ZM614.772 236.585C611.851 224.238 607.94 218.645 603.037 219.804C597.869 221.027 592.718 226.171 587.586 235.236C582.422 244.168 578.554 253.846 575.982 264.268C573.41 274.69 572.767 282.623 574.055 288.066C574.589 290.323 575.956 291.962 578.157 292.984C580.326 293.873 582.669 294.019 585.187 293.424C591.415 291.95 597.45 286.107 603.29 275.893C609.098 265.546 612.098 253.971 612.288 241.169C612.214 239.083 613.058 237.622 614.819 236.785L614.772 236.585Z" fill="#2C2C2C"/>
<path d="M577.078 374.496C571.397 375.902 566.918 380.229 565.043 385.784C529.287 491.714 429.137 568.021 311.113 568.021C239.542 568.021 174.543 539.959 126.491 494.247C122.258 490.22 116.3 488.491 110.633 489.893C98.6478 492.858 94.1142 507.412 103.008 515.991C156.934 568.008 230.289 600 311.113 600C443.9 600 556.528 513.65 595.956 394.014C599.824 382.278 589.053 371.534 577.078 374.496Z" fill="#BBF330"/>
<path d="M35.0202 265.316C41.4972 263.713 46.3027 258.307 47.4987 251.73C70.2208 126.777 179.565 31.9792 311.113 31.9792C396.645 31.9792 472.789 72.0545 521.841 134.437C525.957 139.672 532.7 142.191 539.157 140.594C550.106 137.885 555.054 125.132 548.131 116.209C493.274 45.5027 407.505 0 311.113 0C163.245 0 40.3753 107.079 15.7474 247.96C13.8057 259.067 24.0951 268.019 35.0202 265.316Z" fill="#BBF330"/>
<path d="M762 99.965C691.135 235.735 660.026 146.183 560.27 198.788C570.247 41.1839 675.9 137.079 762 99.965Z" fill="#BBF330"/>
</svg>
